<svg xmlns="http://www.w3.org/2000/svg" width="256" height="256" viewBox="0 0 100 100"><rect width="100" height="100" rx="20" fill="#c05621"></rect><path fill="#fff" d="M81.36 50.04L81.36 50.04Q81.36 53.38 80.19 55.89Q79.02 58.41 77.09 60.12Q75.16 61.83 72.50 62.69Q69.84 63.54 66.88 63.54L66.88 63.54Q61.66 63.54 57.56 61.52Q53.47 59.49 50.05 55.08L50.05 55.08Q43.30 63.54 33.13 63.54L33.13 63.54Q30.15 63.54 27.50 62.64Q24.84 61.74 22.86 60.03Q20.88 58.32 19.76 55.80Q18.63 53.28 18.63 50.04L18.63 50.04Q18.63 46.80 19.80 44.24Q20.97 41.67 22.95 39.96Q24.93 38.25 27.63 37.35Q30.33 36.45 33.30 36.45L33.30 36.45Q38.44 36.45 42.44 38.84Q46.44 41.22 49.86 45.54L49.86 45.54Q53.47 40.95 57.52 38.70Q61.56 36.45 66.52 36.45L66.52 36.45Q73.17 36.45 77.27 40.14Q81.36 43.83 81.36 50.04ZM65.70 42.30L65.70 42.30Q61.92 42.30 58.95 44.69Q55.98 47.07 53.55 50.22L53.55 50.22Q55.72 53.19 58.82 55.44Q61.92 57.69 66.06 57.69L66.06 57.69Q70.11 57.69 72.32 55.53Q74.52 53.38 74.52 50.13L74.52 50.13Q74.52 46.71 72.14 44.51Q69.75 42.30 65.70 42.30ZM33.84 57.69L33.84 57.69Q37.63 57.69 40.82 55.67Q44.02 53.64 46.35 50.22L46.35 50.22Q43.74 46.80 40.64 44.55Q37.53 42.30 33.94 42.30L33.94 42.30Q30.15 42.30 27.86 44.33Q25.56 46.35 25.56 50.04L25.56 50.04Q25.56 53.73 27.86 55.71Q30.15 57.69 33.84 57.69Z"></path></svg>